<svg width="160" height="40" viewBox="0 0 160 40" fill="none" xmlns="http://www.w3.org/2000/svg">
  <rect width="160" height="40" rx="10" fill="url(#paint0_linear)" fill-opacity="0.18"/>
  <path d="M22 10h4l4 8 4-8h4l-6 12v8h-4v-8L22 10Zm38 6c2.5 0 4.5 2 4.5 4.5v5c0 2.5-2 4.5-4.5 4.5h-9V10h4v6h5Zm0 4h-5v6h5v-6Zm22-10v18h-4v-1.8c-.8 1.2-2.3 2.1-4.2 2.1-3.4 0-6.2-2.8-6.2-6.3v-1.7c0-3.5 2.8-6.3 6.2-6.3 1.9 0 3.4.9 4.2 2.1V10h4Zm-7.1 8.5c-1.4 0-2.7 1.1-2.7 2.7v1.5c0 1.6 1.3 2.7 2.7 2.7 1.5 0 2.8-1.1 2.8-2.7v-1.5c0-1.6-1.3-2.7-2.8-2.7ZM104 20c0-5.5 4.4-10 10-10s10 4.5 10 10-4.4 10-10 10-10-4.5-10-10Zm15.7 0c0-3.2-2.5-5.7-5.7-5.7-3.1 0-5.7 2.5-5.7 5.7 0 3.2 2.6 5.7 5.7 5.7 3.2 0 5.7-2.5 5.7-5.7ZM134 10h4v9.2l7-9.2h5l-7.5 9.6 8.2 10.4H145l-7-9.1V30h-4V10Z" fill="white"/>
  <defs>
    <linearGradient id="paint0_linear" x1="0" y1="0" x2="160" y2="40" gradientUnits="userSpaceOnUse">
      <stop stop-color="#FFFFFF" stop-opacity="0.6"/>
      <stop offset="1" stop-color="#FFFFFF" stop-opacity="0.2"/>
    </linearGradient>
  </defs>
</svg>
